<mxfile host="app.diagrams.net" modified="2023-12-26T21:31:22.306Z" agent="Mozilla/5.0 (Windows NT 10.0; Win64; x64) AppleWebKit/537.36 (KHTML, like Gecko) Chrome/120.0.0.0 Safari/537.36" etag="8GZ1NIN86uHAMUpmE76Z" version="22.1.11" type="google">
  <diagram id="6a731a19-8d31-9384-78a2-239565b7b9f0" name="Page-1">
    <mxGraphModel grid="1" page="1" gridSize="10" guides="1" tooltips="1" connect="1" arrows="1" fold="1" pageScale="1" pageWidth="1169" pageHeight="827" background="none" math="0" shadow="0">
      <root>
        <mxCell id="0" />
        <mxCell id="1" parent="0" />
        <mxCell id="_Ds3YYsd7DmvAKlFNsiC-1784" style="edgeStyle=none;rounded=0;orthogonalLoop=1;jettySize=auto;html=1;exitX=1;exitY=0.5;exitDx=0;exitDy=0;entryX=0;entryY=0.5;entryDx=0;entryDy=0;" edge="1" parent="1" source="1749" target="_Ds3YYsd7DmvAKlFNsiC-1779">
          <mxGeometry relative="1" as="geometry" />
        </mxCell>
        <mxCell id="_Ds3YYsd7DmvAKlFNsiC-1785" style="edgeStyle=none;rounded=0;orthogonalLoop=1;jettySize=auto;html=1;exitX=1;exitY=0.5;exitDx=0;exitDy=0;entryX=0;entryY=0.5;entryDx=0;entryDy=0;" edge="1" parent="1" source="1749" target="_Ds3YYsd7DmvAKlFNsiC-1780">
          <mxGeometry relative="1" as="geometry" />
        </mxCell>
        <mxCell id="_Ds3YYsd7DmvAKlFNsiC-1786" style="edgeStyle=none;rounded=0;orthogonalLoop=1;jettySize=auto;html=1;exitX=1;exitY=0.5;exitDx=0;exitDy=0;entryX=0;entryY=0.5;entryDx=0;entryDy=0;" edge="1" parent="1" source="1749" target="_Ds3YYsd7DmvAKlFNsiC-1781">
          <mxGeometry relative="1" as="geometry" />
        </mxCell>
        <mxCell id="8nI1soSFC7TfVqtvhf_B-1771" style="rounded=0;orthogonalLoop=1;jettySize=auto;html=1;exitX=1;exitY=0.5;exitDx=0;exitDy=0;entryX=-0.013;entryY=0.153;entryDx=0;entryDy=0;entryPerimeter=0;" edge="1" parent="1" source="1749" target="8nI1soSFC7TfVqtvhf_B-1767">
          <mxGeometry relative="1" as="geometry">
            <mxPoint x="142" y="560" as="targetPoint" />
          </mxGeometry>
        </mxCell>
        <mxCell id="8nI1soSFC7TfVqtvhf_B-1772" style="edgeStyle=none;rounded=0;orthogonalLoop=1;jettySize=auto;html=1;exitX=1;exitY=0.5;exitDx=0;exitDy=0;entryX=0;entryY=0.5;entryDx=0;entryDy=0;" edge="1" parent="1" source="1749" target="8nI1soSFC7TfVqtvhf_B-1770">
          <mxGeometry relative="1" as="geometry" />
        </mxCell>
        <mxCell id="2tV-piLSfjbirZd9Qh-r-1769" style="edgeStyle=none;rounded=0;orthogonalLoop=1;jettySize=auto;html=1;exitX=1;exitY=0.5;exitDx=0;exitDy=0;" edge="1" parent="1" source="1749" target="2tV-piLSfjbirZd9Qh-r-1768">
          <mxGeometry relative="1" as="geometry" />
        </mxCell>
        <mxCell id="1749" value="&lt;font color=&quot;#000000&quot;&gt;Saldo_2&lt;/font&gt;" style="rounded=1;whiteSpace=wrap;html=1;shadow=0;labelBackgroundColor=none;strokeColor=none;strokeWidth=3;fillColor=#B5739D;fontFamily=Helvetica;fontSize=16;fontColor=#FFFFFF;align=center;fontStyle=1;spacing=5;arcSize=7;perimeterSpacing=2;" vertex="1" parent="1">
          <mxGeometry x="-130" y="379" width="150" height="70" as="geometry" />
        </mxCell>
        <mxCell id="1757" value="" style="edgeStyle=none;rounded=0;jumpStyle=none;html=1;shadow=0;labelBackgroundColor=none;startArrow=none;startFill=0;endArrow=classic;endFill=1;jettySize=auto;orthogonalLoop=1;strokeColor=#1699D3;strokeWidth=3;fontFamily=Helvetica;fontSize=14;fontColor=#FFFFFF;spacing=5;" edge="1" parent="1">
          <mxGeometry relative="1" as="geometry">
            <mxPoint x="493" y="631.3" as="sourcePoint" />
          </mxGeometry>
        </mxCell>
        <mxCell id="1758" value="" style="edgeStyle=none;rounded=0;jumpStyle=none;html=1;shadow=0;labelBackgroundColor=none;startArrow=none;startFill=0;endArrow=classic;endFill=1;jettySize=auto;orthogonalLoop=1;strokeColor=#1699D3;strokeWidth=3;fontFamily=Helvetica;fontSize=14;fontColor=#FFFFFF;spacing=5;" edge="1" parent="1">
          <mxGeometry relative="1" as="geometry">
            <mxPoint x="570" y="632.5" as="sourcePoint" />
          </mxGeometry>
        </mxCell>
        <mxCell id="1759" value="" style="edgeStyle=none;rounded=0;jumpStyle=none;html=1;shadow=0;labelBackgroundColor=none;startArrow=none;startFill=0;endArrow=classic;endFill=1;jettySize=auto;orthogonalLoop=1;strokeColor=#1699D3;strokeWidth=3;fontFamily=Helvetica;fontSize=14;fontColor=#FFFFFF;spacing=5;" edge="1" parent="1">
          <mxGeometry relative="1" as="geometry">
            <mxPoint x="647" y="631.3" as="sourcePoint" />
          </mxGeometry>
        </mxCell>
        <mxCell id="_Ds3YYsd7DmvAKlFNsiC-1793" style="edgeStyle=none;rounded=0;orthogonalLoop=1;jettySize=auto;html=1;exitX=1;exitY=0.5;exitDx=0;exitDy=0;entryX=0;entryY=0.5;entryDx=0;entryDy=0;" edge="1" parent="1" source="_Ds3YYsd7DmvAKlFNsiC-1779" target="8nI1soSFC7TfVqtvhf_B-1759">
          <mxGeometry relative="1" as="geometry" />
        </mxCell>
        <mxCell id="_Ds3YYsd7DmvAKlFNsiC-1794" style="edgeStyle=none;rounded=0;orthogonalLoop=1;jettySize=auto;html=1;exitX=1;exitY=0.5;exitDx=0;exitDy=0;entryX=0;entryY=0.75;entryDx=0;entryDy=0;" edge="1" parent="1" source="_Ds3YYsd7DmvAKlFNsiC-1779" target="2tV-piLSfjbirZd9Qh-r-1759">
          <mxGeometry relative="1" as="geometry" />
        </mxCell>
        <mxCell id="_Ds3YYsd7DmvAKlFNsiC-1795" style="edgeStyle=none;rounded=0;orthogonalLoop=1;jettySize=auto;html=1;exitX=1;exitY=0.5;exitDx=0;exitDy=0;entryX=0;entryY=0.75;entryDx=0;entryDy=0;" edge="1" parent="1" source="_Ds3YYsd7DmvAKlFNsiC-1779" target="2tV-piLSfjbirZd9Qh-r-1761">
          <mxGeometry relative="1" as="geometry" />
        </mxCell>
        <mxCell id="_Ds3YYsd7DmvAKlFNsiC-1796" style="edgeStyle=none;rounded=0;orthogonalLoop=1;jettySize=auto;html=1;exitX=1;exitY=0.5;exitDx=0;exitDy=0;entryX=0;entryY=0.5;entryDx=0;entryDy=0;" edge="1" parent="1" source="_Ds3YYsd7DmvAKlFNsiC-1779" target="2tV-piLSfjbirZd9Qh-r-1763">
          <mxGeometry relative="1" as="geometry" />
        </mxCell>
        <mxCell id="_Ds3YYsd7DmvAKlFNsiC-1797" style="edgeStyle=none;rounded=0;orthogonalLoop=1;jettySize=auto;html=1;exitX=1;exitY=0.5;exitDx=0;exitDy=0;entryX=0;entryY=0.5;entryDx=0;entryDy=0;" edge="1" parent="1" source="_Ds3YYsd7DmvAKlFNsiC-1779" target="2tV-piLSfjbirZd9Qh-r-1765">
          <mxGeometry relative="1" as="geometry" />
        </mxCell>
        <mxCell id="_Ds3YYsd7DmvAKlFNsiC-1779" value="&lt;font color=&quot;#000000&quot;&gt;PlanesPisopaso_2&lt;/font&gt;" style="rounded=1;whiteSpace=wrap;html=1;shadow=0;labelBackgroundColor=none;strokeColor=none;strokeWidth=3;fillColor=#B5739D;fontFamily=Helvetica;fontSize=16;fontColor=#FFFFFF;align=center;fontStyle=1;spacing=5;arcSize=7;perimeterSpacing=2;" vertex="1" parent="1">
          <mxGeometry x="287.5" y="130" width="170" height="70" as="geometry" />
        </mxCell>
        <mxCell id="_Ds3YYsd7DmvAKlFNsiC-1798" style="edgeStyle=none;rounded=0;orthogonalLoop=1;jettySize=auto;html=1;exitX=1;exitY=0.5;exitDx=0;exitDy=0;" edge="1" parent="1" source="_Ds3YYsd7DmvAKlFNsiC-1780" target="_Ds3YYsd7DmvAKlFNsiC-1782">
          <mxGeometry relative="1" as="geometry" />
        </mxCell>
        <mxCell id="_Ds3YYsd7DmvAKlFNsiC-1802" style="edgeStyle=none;rounded=0;orthogonalLoop=1;jettySize=auto;html=1;exitX=1;exitY=0.5;exitDx=0;exitDy=0;entryX=0;entryY=0.5;entryDx=0;entryDy=0;" edge="1" parent="1" source="_Ds3YYsd7DmvAKlFNsiC-1780" target="_Ds3YYsd7DmvAKlFNsiC-1800">
          <mxGeometry relative="1" as="geometry" />
        </mxCell>
        <mxCell id="_Ds3YYsd7DmvAKlFNsiC-1803" style="edgeStyle=none;rounded=0;orthogonalLoop=1;jettySize=auto;html=1;exitX=1;exitY=0.5;exitDx=0;exitDy=0;entryX=0;entryY=0.5;entryDx=0;entryDy=0;" edge="1" parent="1" source="_Ds3YYsd7DmvAKlFNsiC-1780" target="_Ds3YYsd7DmvAKlFNsiC-1801">
          <mxGeometry relative="1" as="geometry" />
        </mxCell>
        <mxCell id="_Ds3YYsd7DmvAKlFNsiC-1804" style="edgeStyle=none;rounded=0;orthogonalLoop=1;jettySize=auto;html=1;exitX=1;exitY=0.5;exitDx=0;exitDy=0;" edge="1" parent="1" source="_Ds3YYsd7DmvAKlFNsiC-1780" target="_Ds3YYsd7DmvAKlFNsiC-1799">
          <mxGeometry relative="1" as="geometry" />
        </mxCell>
        <mxCell id="_Ds3YYsd7DmvAKlFNsiC-1780" value="&lt;font color=&quot;#000000&quot;&gt;SaldoVtanue_Paso_&lt;/font&gt;" style="rounded=1;whiteSpace=wrap;html=1;shadow=0;labelBackgroundColor=none;strokeColor=none;strokeWidth=3;fillColor=#B5739D;fontFamily=Helvetica;fontSize=16;fontColor=#FFFFFF;align=center;fontStyle=1;spacing=5;arcSize=7;perimeterSpacing=2;" vertex="1" parent="1">
          <mxGeometry x="295" y="329" width="170" height="70" as="geometry" />
        </mxCell>
        <mxCell id="_Ds3YYsd7DmvAKlFNsiC-1781" value="&lt;font color=&quot;#000000&quot;&gt;INVNUE_&lt;/font&gt;" style="rounded=1;whiteSpace=wrap;html=1;shadow=0;labelBackgroundColor=none;strokeColor=none;strokeWidth=3;fillColor=#B5739D;fontFamily=Helvetica;fontSize=16;fontColor=#FFFFFF;align=center;fontStyle=1;spacing=5;arcSize=7;perimeterSpacing=2;" vertex="1" parent="1">
          <mxGeometry x="295" y="553" width="170" height="70" as="geometry" />
        </mxCell>
        <mxCell id="_Ds3YYsd7DmvAKlFNsiC-1805" style="edgeStyle=none;rounded=0;orthogonalLoop=1;jettySize=auto;html=1;exitX=0.5;exitY=0;exitDx=0;exitDy=0;entryX=0.5;entryY=1;entryDx=0;entryDy=0;" edge="1" parent="1" source="_Ds3YYsd7DmvAKlFNsiC-1782" target="_Ds3YYsd7DmvAKlFNsiC-1799">
          <mxGeometry relative="1" as="geometry" />
        </mxCell>
        <mxCell id="_Ds3YYsd7DmvAKlFNsiC-1782" value="&lt;font color=&quot;#000000&quot;&gt;VTANUE_VIN&lt;/font&gt;" style="rounded=1;whiteSpace=wrap;html=1;shadow=0;labelBackgroundColor=none;strokeColor=none;strokeWidth=3;fillColor=#B5739D;fontFamily=Helvetica;fontSize=16;fontColor=#FFFFFF;align=center;fontStyle=1;spacing=5;arcSize=7;perimeterSpacing=2;" vertex="1" parent="1">
          <mxGeometry x="617.5" y="503" width="150" height="50" as="geometry" />
        </mxCell>
        <mxCell id="_Ds3YYsd7DmvAKlFNsiC-1788" value="&lt;font color=&quot;#000000&quot;&gt;hsbren&lt;/font&gt;" style="rounded=1;whiteSpace=wrap;html=1;shadow=0;labelBackgroundColor=none;strokeColor=none;strokeWidth=3;fillColor=#FFD966;fontFamily=Helvetica;fontSize=14;fontColor=#FFFFFF;align=center;spacing=5;fontStyle=1;arcSize=7;perimeterSpacing=2;" vertex="1" parent="1">
          <mxGeometry x="860" width="150" height="30" as="geometry" />
        </mxCell>
        <mxCell id="_Ds3YYsd7DmvAKlFNsiC-1789" value="&lt;font color=&quot;#000000&quot;&gt;PlanPisoBBVA&lt;/font&gt;" style="rounded=1;whiteSpace=wrap;html=1;shadow=0;labelBackgroundColor=none;strokeColor=none;strokeWidth=3;fillColor=#FFD966;fontFamily=Helvetica;fontSize=14;fontColor=#FFFFFF;align=center;spacing=5;fontStyle=1;arcSize=7;perimeterSpacing=2;" vertex="1" parent="1">
          <mxGeometry x="760" y="50" width="150" height="40" as="geometry" />
        </mxCell>
        <mxCell id="_Ds3YYsd7DmvAKlFNsiC-1790" value="&lt;font color=&quot;#000000&quot;&gt;PlanPisoCetelem&lt;/font&gt;" style="rounded=1;whiteSpace=wrap;html=1;shadow=0;labelBackgroundColor=none;strokeColor=none;strokeWidth=3;fillColor=#FFD966;fontFamily=Helvetica;fontSize=14;fontColor=#FFFFFF;align=center;spacing=5;fontStyle=1;arcSize=7;perimeterSpacing=2;" vertex="1" parent="1">
          <mxGeometry x="760" y="110" width="150" height="40" as="geometry" />
        </mxCell>
        <mxCell id="_Ds3YYsd7DmvAKlFNsiC-1791" value="&lt;font color=&quot;#000000&quot;&gt;PlanPisoGMFS&lt;/font&gt;" style="rounded=1;whiteSpace=wrap;html=1;shadow=0;labelBackgroundColor=none;strokeColor=none;strokeWidth=3;fillColor=#FFD966;fontFamily=Helvetica;fontSize=14;fontColor=#FFFFFF;align=center;spacing=5;fontStyle=1;arcSize=7;perimeterSpacing=2;" vertex="1" parent="1">
          <mxGeometry x="760" y="160" width="150" height="40" as="geometry" />
        </mxCell>
        <mxCell id="_Ds3YYsd7DmvAKlFNsiC-1792" value="&lt;font color=&quot;#000000&quot;&gt;PlanPisoBanorte&lt;/font&gt;" style="rounded=1;whiteSpace=wrap;html=1;shadow=0;labelBackgroundColor=none;strokeColor=none;strokeWidth=3;fillColor=#FFD966;fontFamily=Helvetica;fontSize=14;fontColor=#FFFFFF;align=center;spacing=5;fontStyle=1;arcSize=7;perimeterSpacing=2;" vertex="1" parent="1">
          <mxGeometry x="760" y="210" width="150" height="40" as="geometry" />
        </mxCell>
        <mxCell id="_Ds3YYsd7DmvAKlFNsiC-1799" value="&lt;font color=&quot;#000000&quot;&gt;VTANUE_&lt;/font&gt;" style="rounded=1;whiteSpace=wrap;html=1;shadow=0;labelBackgroundColor=none;strokeColor=none;strokeWidth=3;fillColor=#B5739D;fontFamily=Helvetica;fontSize=16;fontColor=#FFFFFF;align=center;fontStyle=1;spacing=5;arcSize=7;perimeterSpacing=2;" vertex="1" parent="1">
          <mxGeometry x="617.5" y="430" width="150" height="30" as="geometry" />
        </mxCell>
        <mxCell id="_Ds3YYsd7DmvAKlFNsiC-1800" value="&lt;font color=&quot;#000000&quot;&gt;Directorio&lt;/font&gt;" style="rounded=1;whiteSpace=wrap;html=1;shadow=0;labelBackgroundColor=none;strokeColor=none;strokeWidth=3;fillColor=#FFD966;fontFamily=Helvetica;fontSize=14;fontColor=#FFFFFF;align=center;spacing=5;fontStyle=1;arcSize=7;perimeterSpacing=2;" vertex="1" parent="1">
          <mxGeometry x="617.5" y="329" width="150" height="30" as="geometry" />
        </mxCell>
        <mxCell id="_Ds3YYsd7DmvAKlFNsiC-1801" value="&lt;font color=&quot;#000000&quot;&gt;carter&lt;/font&gt;" style="rounded=1;whiteSpace=wrap;html=1;shadow=0;labelBackgroundColor=none;strokeColor=none;strokeWidth=3;fillColor=#FFD966;fontFamily=Helvetica;fontSize=14;fontColor=#FFFFFF;align=center;spacing=5;fontStyle=1;arcSize=7;perimeterSpacing=2;" vertex="1" parent="1">
          <mxGeometry x="617.5" y="369" width="150" height="30" as="geometry" />
        </mxCell>
        <mxCell id="_Ds3YYsd7DmvAKlFNsiC-1806" value="Agrupa por VIN y filtra aquellos que ventasnetas sean mayores a 0" style="rounded=0;whiteSpace=wrap;html=1;" vertex="1" parent="1">
          <mxGeometry x="617.5" y="569" width="155" height="60" as="geometry" />
        </mxCell>
        <mxCell id="_Ds3YYsd7DmvAKlFNsiC-1807" value="Toma como base VTANUE_VIN y busca los datos faltantes en VTANUE_ y carter&lt;br&gt;Agarra los positivos para los casos donde se canceló y vendió el mismo día" style="rounded=0;whiteSpace=wrap;html=1;" vertex="1" parent="1">
          <mxGeometry x="302.5" y="414" width="155" height="130" as="geometry" />
        </mxCell>
        <mxCell id="8nI1soSFC7TfVqtvhf_B-1762" style="rounded=0;orthogonalLoop=1;jettySize=auto;html=1;exitX=1;exitY=0.5;exitDx=0;exitDy=0;entryX=0;entryY=0.5;entryDx=0;entryDy=0;" edge="1" parent="1" source="8nI1soSFC7TfVqtvhf_B-1759" target="_Ds3YYsd7DmvAKlFNsiC-1788">
          <mxGeometry relative="1" as="geometry" />
        </mxCell>
        <mxCell id="lDrQUfZwlW5q5FU8BDGZ-1763" style="edgeStyle=none;rounded=0;orthogonalLoop=1;jettySize=auto;html=1;exitX=1;exitY=0.5;exitDx=0;exitDy=0;entryX=0;entryY=0.5;entryDx=0;entryDy=0;" edge="1" parent="1" source="8nI1soSFC7TfVqtvhf_B-1759" target="lDrQUfZwlW5q5FU8BDGZ-1762">
          <mxGeometry relative="1" as="geometry" />
        </mxCell>
        <mxCell id="lDrQUfZwlW5q5FU8BDGZ-1764" style="edgeStyle=none;rounded=0;orthogonalLoop=1;jettySize=auto;html=1;exitX=1;exitY=0.5;exitDx=0;exitDy=0;entryX=0;entryY=0.5;entryDx=0;entryDy=0;" edge="1" parent="1" source="8nI1soSFC7TfVqtvhf_B-1759" target="lDrQUfZwlW5q5FU8BDGZ-1759">
          <mxGeometry relative="1" as="geometry" />
        </mxCell>
        <mxCell id="lDrQUfZwlW5q5FU8BDGZ-1765" style="edgeStyle=none;rounded=0;orthogonalLoop=1;jettySize=auto;html=1;exitX=1;exitY=0.5;exitDx=0;exitDy=0;entryX=0;entryY=0.5;entryDx=0;entryDy=0;" edge="1" parent="1" source="8nI1soSFC7TfVqtvhf_B-1759" target="lDrQUfZwlW5q5FU8BDGZ-1760">
          <mxGeometry relative="1" as="geometry" />
        </mxCell>
        <mxCell id="lDrQUfZwlW5q5FU8BDGZ-1766" style="edgeStyle=none;rounded=0;orthogonalLoop=1;jettySize=auto;html=1;exitX=1;exitY=0.5;exitDx=0;exitDy=0;entryX=0;entryY=0.5;entryDx=0;entryDy=0;" edge="1" parent="1" source="8nI1soSFC7TfVqtvhf_B-1759" target="lDrQUfZwlW5q5FU8BDGZ-1761">
          <mxGeometry relative="1" as="geometry" />
        </mxCell>
        <mxCell id="8nI1soSFC7TfVqtvhf_B-1759" value="&lt;font color=&quot;#000000&quot;&gt;PlanPisoHSBC_&lt;/font&gt;" style="rounded=1;whiteSpace=wrap;html=1;shadow=0;labelBackgroundColor=none;strokeColor=none;strokeWidth=3;fillColor=#B5739D;fontFamily=Helvetica;fontSize=16;fontColor=#FFFFFF;align=center;fontStyle=1;spacing=5;arcSize=7;perimeterSpacing=2;" vertex="1" parent="1">
          <mxGeometry x="550" y="-5" width="170" height="40" as="geometry" />
        </mxCell>
        <mxCell id="8nI1soSFC7TfVqtvhf_B-1763" value="Consolida todas las financieras y selecciona las columnas de interés" style="rounded=0;whiteSpace=wrap;html=1;" vertex="1" parent="1">
          <mxGeometry x="295" y="210" width="155" height="70" as="geometry" />
        </mxCell>
        <mxCell id="8nI1soSFC7TfVqtvhf_B-1764" value="Une las tablas correspondientes a cada financiera&lt;br&gt;Falta Añadir fecha actualización a la financiera" style="rounded=0;whiteSpace=wrap;html=1;" vertex="1" parent="1">
          <mxGeometry x="528.75" y="-160" width="212.5" height="90" as="geometry" />
        </mxCell>
        <mxCell id="8nI1soSFC7TfVqtvhf_B-1765" value="&lt;font color=&quot;#000000&quot;&gt;VTAUSA_VIN&lt;/font&gt;" style="rounded=1;whiteSpace=wrap;html=1;shadow=0;labelBackgroundColor=none;strokeColor=none;strokeWidth=3;fillColor=#B5739D;fontFamily=Helvetica;fontSize=16;fontColor=#FFFFFF;align=center;fontStyle=1;spacing=5;arcSize=7;perimeterSpacing=2;" vertex="1" parent="1">
          <mxGeometry x="617.5" y="814" width="150" height="33" as="geometry" />
        </mxCell>
        <mxCell id="8nI1soSFC7TfVqtvhf_B-1766" value="&lt;font color=&quot;#000000&quot;&gt;VTAUSA_&lt;/font&gt;" style="rounded=1;whiteSpace=wrap;html=1;shadow=0;labelBackgroundColor=none;strokeColor=none;strokeWidth=3;fillColor=#B5739D;fontFamily=Helvetica;fontSize=16;fontColor=#FFFFFF;align=center;fontStyle=1;spacing=5;arcSize=7;perimeterSpacing=2;" vertex="1" parent="1">
          <mxGeometry x="617.5" y="740" width="150" height="30" as="geometry" />
        </mxCell>
        <mxCell id="8nI1soSFC7TfVqtvhf_B-1768" style="rounded=0;orthogonalLoop=1;jettySize=auto;html=1;exitX=1;exitY=0.5;exitDx=0;exitDy=0;" edge="1" parent="1" source="8nI1soSFC7TfVqtvhf_B-1767" target="8nI1soSFC7TfVqtvhf_B-1766">
          <mxGeometry relative="1" as="geometry" />
        </mxCell>
        <mxCell id="8nI1soSFC7TfVqtvhf_B-1769" style="rounded=0;orthogonalLoop=1;jettySize=auto;html=1;exitX=1;exitY=0.5;exitDx=0;exitDy=0;" edge="1" parent="1" source="8nI1soSFC7TfVqtvhf_B-1767" target="8nI1soSFC7TfVqtvhf_B-1765">
          <mxGeometry relative="1" as="geometry" />
        </mxCell>
        <mxCell id="FB33spFktAkz-IqpyhGp-1763" style="edgeStyle=none;rounded=0;orthogonalLoop=1;jettySize=auto;html=1;exitX=1;exitY=0.5;exitDx=0;exitDy=0;entryX=0;entryY=0.5;entryDx=0;entryDy=0;" edge="1" parent="1" source="8nI1soSFC7TfVqtvhf_B-1767" target="FB33spFktAkz-IqpyhGp-1759">
          <mxGeometry relative="1" as="geometry" />
        </mxCell>
        <mxCell id="FB33spFktAkz-IqpyhGp-1764" style="edgeStyle=none;rounded=0;orthogonalLoop=1;jettySize=auto;html=1;exitX=1;exitY=0.5;exitDx=0;exitDy=0;entryX=0;entryY=0.5;entryDx=0;entryDy=0;" edge="1" parent="1" source="8nI1soSFC7TfVqtvhf_B-1767" target="FB33spFktAkz-IqpyhGp-1762">
          <mxGeometry relative="1" as="geometry" />
        </mxCell>
        <mxCell id="8nI1soSFC7TfVqtvhf_B-1767" value="&lt;font color=&quot;#000000&quot;&gt;SaldoVtausa_Paso_&lt;/font&gt;" style="rounded=1;whiteSpace=wrap;html=1;shadow=0;labelBackgroundColor=none;strokeColor=none;strokeWidth=3;fillColor=#B5739D;fontFamily=Helvetica;fontSize=16;fontColor=#FFFFFF;align=center;fontStyle=1;spacing=5;arcSize=7;perimeterSpacing=2;" vertex="1" parent="1">
          <mxGeometry x="302.5" y="680" width="170" height="70" as="geometry" />
        </mxCell>
        <mxCell id="8nI1soSFC7TfVqtvhf_B-1770" value="&lt;font color=&quot;#000000&quot;&gt;INVUSA_&lt;/font&gt;" style="rounded=1;whiteSpace=wrap;html=1;shadow=0;labelBackgroundColor=none;strokeColor=none;strokeWidth=3;fillColor=#B5739D;fontFamily=Helvetica;fontSize=16;fontColor=#FFFFFF;align=center;fontStyle=1;spacing=5;arcSize=7;perimeterSpacing=2;" vertex="1" parent="1">
          <mxGeometry x="295" y="777" width="170" height="70" as="geometry" />
        </mxCell>
        <mxCell id="2tV-piLSfjbirZd9Qh-r-1760" style="edgeStyle=none;rounded=0;orthogonalLoop=1;jettySize=auto;html=1;exitX=1;exitY=0.5;exitDx=0;exitDy=0;entryX=0;entryY=0.5;entryDx=0;entryDy=0;" edge="1" parent="1" source="2tV-piLSfjbirZd9Qh-r-1759" target="_Ds3YYsd7DmvAKlFNsiC-1789">
          <mxGeometry relative="1" as="geometry" />
        </mxCell>
        <mxCell id="2tV-piLSfjbirZd9Qh-r-1759" value="&lt;font color=&quot;#000000&quot;&gt;PlanPisoBBVA_&lt;/font&gt;" style="rounded=1;whiteSpace=wrap;html=1;shadow=0;labelBackgroundColor=none;strokeColor=none;strokeWidth=3;fillColor=#B5739D;fontFamily=Helvetica;fontSize=16;fontColor=#FFFFFF;align=center;fontStyle=1;spacing=5;arcSize=7;perimeterSpacing=2;" vertex="1" parent="1">
          <mxGeometry x="550" y="50" width="170" height="40" as="geometry" />
        </mxCell>
        <mxCell id="2tV-piLSfjbirZd9Qh-r-1762" style="edgeStyle=none;rounded=0;orthogonalLoop=1;jettySize=auto;html=1;exitX=1;exitY=0.5;exitDx=0;exitDy=0;entryX=0;entryY=0.5;entryDx=0;entryDy=0;" edge="1" parent="1" source="2tV-piLSfjbirZd9Qh-r-1761" target="_Ds3YYsd7DmvAKlFNsiC-1790">
          <mxGeometry relative="1" as="geometry" />
        </mxCell>
        <mxCell id="2tV-piLSfjbirZd9Qh-r-1761" value="&lt;font color=&quot;#000000&quot;&gt;PlanPisoCetelem_&lt;/font&gt;" style="rounded=1;whiteSpace=wrap;html=1;shadow=0;labelBackgroundColor=none;strokeColor=none;strokeWidth=3;fillColor=#B5739D;fontFamily=Helvetica;fontSize=16;fontColor=#FFFFFF;align=center;fontStyle=1;spacing=5;arcSize=7;perimeterSpacing=2;" vertex="1" parent="1">
          <mxGeometry x="550" y="110" width="170" height="40" as="geometry" />
        </mxCell>
        <mxCell id="2tV-piLSfjbirZd9Qh-r-1764" style="edgeStyle=none;rounded=0;orthogonalLoop=1;jettySize=auto;html=1;exitX=1;exitY=0.5;exitDx=0;exitDy=0;entryX=0;entryY=0.5;entryDx=0;entryDy=0;" edge="1" parent="1" source="2tV-piLSfjbirZd9Qh-r-1763" target="_Ds3YYsd7DmvAKlFNsiC-1791">
          <mxGeometry relative="1" as="geometry" />
        </mxCell>
        <mxCell id="2tV-piLSfjbirZd9Qh-r-1763" value="&lt;font color=&quot;#000000&quot;&gt;PlanPisoGMFS_&lt;/font&gt;" style="rounded=1;whiteSpace=wrap;html=1;shadow=0;labelBackgroundColor=none;strokeColor=none;strokeWidth=3;fillColor=#B5739D;fontFamily=Helvetica;fontSize=16;fontColor=#FFFFFF;align=center;fontStyle=1;spacing=5;arcSize=7;perimeterSpacing=2;" vertex="1" parent="1">
          <mxGeometry x="550" y="160" width="170" height="40" as="geometry" />
        </mxCell>
        <mxCell id="2tV-piLSfjbirZd9Qh-r-1766" style="edgeStyle=none;rounded=0;orthogonalLoop=1;jettySize=auto;html=1;exitX=1;exitY=0.5;exitDx=0;exitDy=0;" edge="1" parent="1" source="2tV-piLSfjbirZd9Qh-r-1765" target="_Ds3YYsd7DmvAKlFNsiC-1792">
          <mxGeometry relative="1" as="geometry" />
        </mxCell>
        <mxCell id="2tV-piLSfjbirZd9Qh-r-1765" value="&lt;font color=&quot;#000000&quot;&gt;PlanPisoBanorte_&lt;/font&gt;" style="rounded=1;whiteSpace=wrap;html=1;shadow=0;labelBackgroundColor=none;strokeColor=none;strokeWidth=3;fillColor=#B5739D;fontFamily=Helvetica;fontSize=16;fontColor=#FFFFFF;align=center;fontStyle=1;spacing=5;arcSize=7;perimeterSpacing=2;" vertex="1" parent="1">
          <mxGeometry x="550" y="210" width="170" height="40" as="geometry" />
        </mxCell>
        <mxCell id="2tV-piLSfjbirZd9Qh-r-1768" value="&lt;font style=&quot;font-size: 24px;&quot;&gt;FALTA REFACCIONES&lt;/font&gt;" style="rounded=0;whiteSpace=wrap;html=1;fillColor=#FF0000;" vertex="1" parent="1">
          <mxGeometry x="180" y="970" width="200" height="70" as="geometry" />
        </mxCell>
        <mxCell id="lDrQUfZwlW5q5FU8BDGZ-1759" value="&lt;font color=&quot;#000000&quot;&gt;hsbchi&lt;/font&gt;" style="rounded=1;whiteSpace=wrap;html=1;shadow=0;labelBackgroundColor=none;strokeColor=none;strokeWidth=3;fillColor=#FFD966;fontFamily=Helvetica;fontSize=14;fontColor=#FFFFFF;align=center;spacing=5;fontStyle=1;arcSize=7;perimeterSpacing=2;" vertex="1" parent="1">
          <mxGeometry x="860" y="-132.5" width="150" height="35" as="geometry" />
        </mxCell>
        <mxCell id="lDrQUfZwlW5q5FU8BDGZ-1760" value="&lt;font color=&quot;#000000&quot;&gt;hsbmg&lt;/font&gt;" style="rounded=1;whiteSpace=wrap;html=1;shadow=0;labelBackgroundColor=none;strokeColor=none;strokeWidth=3;fillColor=#FFD966;fontFamily=Helvetica;fontSize=14;fontColor=#FFFFFF;align=center;spacing=5;fontStyle=1;arcSize=7;perimeterSpacing=2;" vertex="1" parent="1">
          <mxGeometry x="860" y="-80" width="150" height="30" as="geometry" />
        </mxCell>
        <mxCell id="lDrQUfZwlW5q5FU8BDGZ-1761" value="&lt;font color=&quot;#000000&quot;&gt;hsbmit&lt;/font&gt;" style="rounded=1;whiteSpace=wrap;html=1;shadow=0;labelBackgroundColor=none;strokeColor=none;strokeWidth=3;fillColor=#FFD966;fontFamily=Helvetica;fontSize=14;fontColor=#FFFFFF;align=center;spacing=5;fontStyle=1;arcSize=7;perimeterSpacing=2;" vertex="1" parent="1">
          <mxGeometry x="860" y="-40" width="150" height="30" as="geometry" />
        </mxCell>
        <mxCell id="lDrQUfZwlW5q5FU8BDGZ-1762" value="&lt;font color=&quot;#000000&quot;&gt;hsbche&lt;/font&gt;" style="rounded=1;whiteSpace=wrap;html=1;shadow=0;labelBackgroundColor=none;strokeColor=none;strokeWidth=3;fillColor=#FFD966;fontFamily=Helvetica;fontSize=14;fontColor=#FFFFFF;align=center;spacing=5;fontStyle=1;arcSize=7;perimeterSpacing=2;" vertex="1" parent="1">
          <mxGeometry x="860" y="-170" width="150" height="30" as="geometry" />
        </mxCell>
        <mxCell id="FB33spFktAkz-IqpyhGp-1759" value="&lt;font color=&quot;#000000&quot;&gt;carter&lt;/font&gt;" style="rounded=1;whiteSpace=wrap;html=1;shadow=0;labelBackgroundColor=none;strokeColor=none;strokeWidth=3;fillColor=#FFD966;fontFamily=Helvetica;fontSize=14;fontColor=#FFFFFF;align=center;spacing=5;fontStyle=1;arcSize=7;perimeterSpacing=2;" vertex="1" parent="1">
          <mxGeometry x="617.5" y="700" width="150" height="30" as="geometry" />
        </mxCell>
        <mxCell id="FB33spFktAkz-IqpyhGp-1762" value="&lt;font color=&quot;#000000&quot;&gt;Directorio&lt;/font&gt;" style="rounded=1;whiteSpace=wrap;html=1;shadow=0;labelBackgroundColor=none;strokeColor=none;strokeWidth=3;fillColor=#FFD966;fontFamily=Helvetica;fontSize=14;fontColor=#FFFFFF;align=center;spacing=5;fontStyle=1;arcSize=7;perimeterSpacing=2;" vertex="1" parent="1">
          <mxGeometry x="622.5" y="660" width="150" height="30" as="geometry" />
        </mxCell>
      </root>
    </mxGraphModel>
  </diagram>
</mxfile>
